<svg width="482" height="482" viewBox="0 0 482 482" fill="none" xmlns="http://www.w3.org/2000/svg">
<g clip-path="url(#clip0_127_40)">
<path d="M0 335.348V62.9131C0 40.1269 18.1832 21.5876 40.8311 21.0137L41.9131 21H170.497C187.352 21 202.393 31.4898 208.246 47.2354L208.789 48.7432C214.642 64.4887 229.683 74.9784 246.537 74.9785H356.261C379.409 74.9785 398.174 93.7439 398.174 116.892V335.348C398.174 358.496 379.409 377.261 356.261 377.261V341.881C359.869 341.881 362.794 338.956 362.794 335.348V116.892C362.794 113.284 359.869 110.359 356.261 110.359H246.537C214.374 110.359 185.727 90.0231 175.117 59.6602C174.431 57.696 172.578 56.3799 170.497 56.3799H41.9131C38.305 56.3799 35.3799 59.305 35.3799 62.9131V335.348C35.3799 338.956 38.305 341.881 41.9131 341.881V377.261L40.8311 377.247C18.1832 376.673 0 358.134 0 335.348ZM356.261 341.881V377.261H41.9131V341.881H356.261Z" fill="black"/>
<path d="M440.261 158.805C463.409 158.805 482.174 177.57 482.174 200.718V419.174C482.174 442.322 463.409 461.087 440.261 461.087H125.913L124.831 461.073C102.183 460.499 84 441.96 84 419.174V360H119.38V419.174C119.38 422.782 122.305 425.707 125.913 425.707H440.261C443.869 425.707 446.794 422.782 446.794 419.174V200.718C446.794 197.11 443.869 194.186 440.261 194.186H391V158.805H440.261Z" fill="black"/>
</g>
<defs>
<clipPath id="clip0_127_40">
<rect width="482" height="482" fill="white"/>
</clipPath>
</defs>
</svg>
