<svg width="478" height="422" viewBox="0 0 478 422" fill="none" xmlns="http://www.w3.org/2000/svg">
<path d="M225.844 4.35744C273.662 -5.154 323.298 2.20958 366.296 25.1924C409.294 48.1753 442.993 85.3558 461.65 130.399C480.308 175.443 482.77 225.562 468.617 272.218C454.464 318.873 424.572 359.178 384.034 386.265C343.496 413.351 294.82 425.544 246.3 420.766C236.576 419.808 229.47 411.149 230.428 401.425C231.385 391.701 240.045 384.595 249.768 385.553C290.142 389.529 330.645 379.383 364.377 356.845C398.108 334.306 422.981 300.768 434.758 261.946C446.534 223.125 444.486 181.421 428.961 143.94C413.436 106.46 385.395 75.5214 349.616 56.3975C313.838 37.2736 272.535 31.147 232.746 39.0615C192.957 46.9762 157.143 68.4418 131.406 99.8018C105.67 131.162 91.6034 170.476 91.6034 211.045C91.6032 219.093 86.1711 226.126 78.3847 228.161C70.5982 230.196 62.4199 226.719 58.4823 219.7L2.27921 119.513C-2.50117 110.991 0.532068 100.208 9.05363 95.4277C17.5751 90.6475 28.3582 93.6797 33.1386 102.201L63.4667 156.265C71.1895 127.579 84.9438 100.642 104.055 77.3555C134.984 39.6675 178.026 13.8691 225.844 4.35744ZM233.381 143.846C233.381 134.075 241.301 126.153 251.072 126.153C260.843 126.153 268.764 134.075 268.764 143.846V223.897H331.711C341.481 223.898 349.402 231.818 349.402 241.589C349.402 251.36 341.482 259.281 331.711 259.281H251.072C241.301 259.281 233.381 251.36 233.381 241.589V143.846Z" fill="black"/>
</svg>
